<?xml version="1.0" encoding="UTF-8"?>
<svg xmlns="http://www.w3.org/2000/svg" width="1320" height="1100" viewBox="0 0 1320 1100" role="img" aria-labelledby="title desc">
<title id="title">DDS standardized performance trend</title>
<desc id="desc">Recorded performance entries showing cumulative runtime and per-board runtime across standardized runs and standalone alpha-mu baselines.</desc>
<rect x="0" y="0" width="1320" height="1100" fill="#ffffff" />
<text x="110.00" y="48.00" font-size="28" font-weight="700" fill="#111827">DDS standardized performance trend</text>
<text x="110.00" y="78.00" font-size="15" fill="#4b5563">Top panel: cumulative runtime. Bottom panel: per-board runtime for entries that record board counts.</text>
<text x="110.00" y="100.00" font-size="13" fill="#6b7280">Hollow X markers denote flagged historical outliers/non-comparable measurements and are excluded from the trend line for that workload.</text>
<rect x="110.00" y="120.00" width="930.00" height="340.00" fill="#fcfcfd" stroke="#d1d5db" stroke-width="1" />
<text x="122.00" y="144.00" font-size="16" font-weight="700" fill="#111827">Cumulative runtime by workload</text>
<line x1="110.00" y1="460.00" x2="1040.00" y2="460.00" stroke="#e5e7eb" stroke-width="1" />
<text x="96.00" y="465.00" text-anchor="end" font-size="13" fill="#374151">0.01 s</text>
<line x1="110.00" y1="439.53" x2="1040.00" y2="439.53" stroke="#e5e7eb" stroke-width="1" />
<text x="96.00" y="444.53" text-anchor="end" font-size="13" fill="#374151">0.02 s</text>
<line x1="110.00" y1="412.47" x2="1040.00" y2="412.47" stroke="#e5e7eb" stroke-width="1" />
<text x="96.00" y="417.47" text-anchor="end" font-size="13" fill="#374151">0.05 s</text>
<line x1="110.00" y1="392.00" x2="1040.00" y2="392.00" stroke="#e5e7eb" stroke-width="1" />
<text x="96.00" y="397.00" text-anchor="end" font-size="13" fill="#374151">0.10 s</text>
<line x1="110.00" y1="371.53" x2="1040.00" y2="371.53" stroke="#e5e7eb" stroke-width="1" />
<text x="96.00" y="376.53" text-anchor="end" font-size="13" fill="#374151">0.20 s</text>
<line x1="110.00" y1="344.47" x2="1040.00" y2="344.47" stroke="#e5e7eb" stroke-width="1" />
<text x="96.00" y="349.47" text-anchor="end" font-size="13" fill="#374151">0.50 s</text>
<line x1="110.00" y1="324.00" x2="1040.00" y2="324.00" stroke="#e5e7eb" stroke-width="1" />
<text x="96.00" y="329.00" text-anchor="end" font-size="13" fill="#374151">1.0 s</text>
<line x1="110.00" y1="303.53" x2="1040.00" y2="303.53" stroke="#e5e7eb" stroke-width="1" />
<text x="96.00" y="308.53" text-anchor="end" font-size="13" fill="#374151">2.0 s</text>
<line x1="110.00" y1="276.47" x2="1040.00" y2="276.47" stroke="#e5e7eb" stroke-width="1" />
<text x="96.00" y="281.47" text-anchor="end" font-size="13" fill="#374151">5.0 s</text>
<line x1="110.00" y1="256.00" x2="1040.00" y2="256.00" stroke="#e5e7eb" stroke-width="1" />
<text x="96.00" y="261.00" text-anchor="end" font-size="13" fill="#374151">10 s</text>
<line x1="110.00" y1="235.53" x2="1040.00" y2="235.53" stroke="#e5e7eb" stroke-width="1" />
<text x="96.00" y="240.53" text-anchor="end" font-size="13" fill="#374151">20 s</text>
<line x1="110.00" y1="208.47" x2="1040.00" y2="208.47" stroke="#e5e7eb" stroke-width="1" />
<text x="96.00" y="213.47" text-anchor="end" font-size="13" fill="#374151">50 s</text>
<line x1="110.00" y1="188.00" x2="1040.00" y2="188.00" stroke="#e5e7eb" stroke-width="1" />
<text x="96.00" y="193.00" text-anchor="end" font-size="13" fill="#374151">100 s</text>
<line x1="110.00" y1="167.53" x2="1040.00" y2="167.53" stroke="#e5e7eb" stroke-width="1" />
<text x="96.00" y="172.53" text-anchor="end" font-size="13" fill="#374151">200 s</text>
<line x1="110.00" y1="140.47" x2="1040.00" y2="140.47" stroke="#e5e7eb" stroke-width="1" />
<text x="96.00" y="145.47" text-anchor="end" font-size="13" fill="#374151">500 s</text>
<line x1="110.00" y1="120.00" x2="1040.00" y2="120.00" stroke="#e5e7eb" stroke-width="1" />
<text x="96.00" y="125.00" text-anchor="end" font-size="13" fill="#374151">1000 s</text>
<line x1="110.00" y1="120.00" x2="110.00" y2="460.00" stroke="#6b7280" stroke-width="1.5" />
<line x1="110.00" y1="460.00" x2="1040.00" y2="460.00" stroke="#6b7280" stroke-width="1.5" />
<text x="34.00" y="290.00" transform="rotate(-90 34 290.00)" font-size="14" fill="#374151">Cumulative time (seconds, log scale)</text>
<line x1="110.00" y1="120.00" x2="110.00" y2="460.00" stroke="#f3f4f6" stroke-width="1" />
<line x1="213.33" y1="120.00" x2="213.33" y2="460.00" stroke="#f3f4f6" stroke-width="1" />
<line x1="316.67" y1="120.00" x2="316.67" y2="460.00" stroke="#f3f4f6" stroke-width="1" />
<line x1="420.00" y1="120.00" x2="420.00" y2="460.00" stroke="#f3f4f6" stroke-width="1" />
<line x1="523.33" y1="120.00" x2="523.33" y2="460.00" stroke="#f3f4f6" stroke-width="1" />
<line x1="626.67" y1="120.00" x2="626.67" y2="460.00" stroke="#f3f4f6" stroke-width="1" />
<line x1="730.00" y1="120.00" x2="730.00" y2="460.00" stroke="#f3f4f6" stroke-width="1" />
<line x1="833.33" y1="120.00" x2="833.33" y2="460.00" stroke="#f3f4f6" stroke-width="1" />
<line x1="936.67" y1="120.00" x2="936.67" y2="460.00" stroke="#f3f4f6" stroke-width="1" />
<line x1="1040.00" y1="120.00" x2="1040.00" y2="460.00" stroke="#f3f4f6" stroke-width="1" />
<polyline points="110.00,348.86 213.33,340.04 420.00,346.17 523.33,340.55 626.67,348.04 730.00,347.65 833.33,347.65" fill="none" stroke="#4C78A8" stroke-width="3" stroke-linecap="round" stroke-linejoin="round" />
<circle cx="110.00" cy="348.86" r="4.50" fill="#4C78A8" stroke="#ffffff" stroke-width="1.5" />
<circle cx="213.33" cy="340.04" r="4.50" fill="#4C78A8" stroke="#ffffff" stroke-width="1.5" />
<circle cx="420.00" cy="346.17" r="4.50" fill="#4C78A8" stroke="#ffffff" stroke-width="1.5" />
<circle cx="523.33" cy="340.55" r="4.50" fill="#4C78A8" stroke="#ffffff" stroke-width="1.5" />
<circle cx="626.67" cy="348.04" r="4.50" fill="#4C78A8" stroke="#ffffff" stroke-width="1.5" />
<circle cx="730.00" cy="347.65" r="4.50" fill="#4C78A8" stroke="#ffffff" stroke-width="1.5" />
<circle cx="833.33" cy="347.65" r="4.50" fill="#4C78A8" stroke="#ffffff" stroke-width="1.5" />
<circle cx="316.67" cy="211.71" r="6.00" fill="#ffffff" stroke="#4C78A8" stroke-width="2.5" />
<line x1="312.67" y1="207.71" x2="320.67" y2="215.71" stroke="#4C78A8" stroke-width="2.0" stroke-linecap="round" />
<line x1="312.67" y1="215.71" x2="320.67" y2="207.71" stroke="#4C78A8" stroke-width="2.0" stroke-linecap="round" />
<polyline points="110.00,380.03 213.33,372.58 316.67,349.48 420.00,365.06 523.33,355.77 730.00,378.87 833.33,380.62" fill="none" stroke="#F58518" stroke-width="3" stroke-linecap="round" stroke-linejoin="round" />
<circle cx="110.00" cy="380.03" r="4.50" fill="#F58518" stroke="#ffffff" stroke-width="1.5" />
<circle cx="213.33" cy="372.58" r="4.50" fill="#F58518" stroke="#ffffff" stroke-width="1.5" />
<circle cx="316.67" cy="349.48" r="4.50" fill="#F58518" stroke="#ffffff" stroke-width="1.5" />
<circle cx="420.00" cy="365.06" r="4.50" fill="#F58518" stroke="#ffffff" stroke-width="1.5" />
<circle cx="523.33" cy="355.77" r="4.50" fill="#F58518" stroke="#ffffff" stroke-width="1.5" />
<circle cx="730.00" cy="378.87" r="4.50" fill="#F58518" stroke="#ffffff" stroke-width="1.5" />
<circle cx="833.33" cy="380.62" r="4.50" fill="#F58518" stroke="#ffffff" stroke-width="1.5" />
<circle cx="626.67" cy="241.33" r="6.00" fill="#ffffff" stroke="#F58518" stroke-width="2.5" />
<line x1="622.67" y1="237.33" x2="630.67" y2="245.33" stroke="#F58518" stroke-width="2.0" stroke-linecap="round" />
<line x1="622.67" y1="245.33" x2="630.67" y2="237.33" stroke="#F58518" stroke-width="2.0" stroke-linecap="round" />
<polyline points="936.67,132.57 1040.00,133.59" fill="none" stroke="#54A24B" stroke-width="3" stroke-linecap="round" stroke-linejoin="round" />
<circle cx="936.67" cy="132.57" r="4.50" fill="#54A24B" stroke="#ffffff" stroke-width="1.5" />
<circle cx="1040.00" cy="133.59" r="4.50" fill="#54A24B" stroke="#ffffff" stroke-width="1.5" />
<polyline points="110.00,381.23 213.33,368.05 316.67,364.59 420.00,372.74 626.67,384.48 730.00,372.43 833.33,386.37" fill="none" stroke="#E45756" stroke-width="3" stroke-linecap="round" stroke-linejoin="round" />
<circle cx="110.00" cy="381.23" r="4.50" fill="#E45756" stroke="#ffffff" stroke-width="1.5" />
<circle cx="213.33" cy="368.05" r="4.50" fill="#E45756" stroke="#ffffff" stroke-width="1.5" />
<circle cx="316.67" cy="364.59" r="4.50" fill="#E45756" stroke="#ffffff" stroke-width="1.5" />
<circle cx="420.00" cy="372.74" r="4.50" fill="#E45756" stroke="#ffffff" stroke-width="1.5" />
<circle cx="626.67" cy="384.48" r="4.50" fill="#E45756" stroke="#ffffff" stroke-width="1.5" />
<circle cx="730.00" cy="372.43" r="4.50" fill="#E45756" stroke="#ffffff" stroke-width="1.5" />
<circle cx="833.33" cy="386.37" r="4.50" fill="#E45756" stroke="#ffffff" stroke-width="1.5" />
<circle cx="523.33" cy="264.19" r="6.00" fill="#ffffff" stroke="#E45756" stroke-width="2.5" />
<line x1="519.33" y1="260.19" x2="527.33" y2="268.19" stroke="#E45756" stroke-width="2.0" stroke-linecap="round" />
<line x1="519.33" y1="268.19" x2="527.33" y2="260.19" stroke="#E45756" stroke-width="2.0" stroke-linecap="round" />
<polyline points="110.00,318.91 213.33,317.67 316.67,317.58 420.00,316.83 523.33,292.82 626.67,317.67 730.00,298.81 833.33,317.41" fill="none" stroke="#72B7B2" stroke-width="3" stroke-linecap="round" stroke-linejoin="round" />
<circle cx="110.00" cy="318.91" r="4.50" fill="#72B7B2" stroke="#ffffff" stroke-width="1.5" />
<circle cx="213.33" cy="317.67" r="4.50" fill="#72B7B2" stroke="#ffffff" stroke-width="1.5" />
<circle cx="316.67" cy="317.58" r="4.50" fill="#72B7B2" stroke="#ffffff" stroke-width="1.5" />
<circle cx="420.00" cy="316.83" r="4.50" fill="#72B7B2" stroke="#ffffff" stroke-width="1.5" />
<circle cx="523.33" cy="292.82" r="4.50" fill="#72B7B2" stroke="#ffffff" stroke-width="1.5" />
<circle cx="626.67" cy="317.67" r="4.50" fill="#72B7B2" stroke="#ffffff" stroke-width="1.5" />
<circle cx="730.00" cy="298.81" r="4.50" fill="#72B7B2" stroke="#ffffff" stroke-width="1.5" />
<circle cx="833.33" cy="317.41" r="4.50" fill="#72B7B2" stroke="#ffffff" stroke-width="1.5" />
<polyline points="110.00,390.00 213.33,375.14 316.67,374.97 420.00,390.28 523.33,370.37 626.67,380.03 730.00,390.00 833.33,390.28" fill="none" stroke="#B279A2" stroke-width="3" stroke-linecap="round" stroke-linejoin="round" />
<circle cx="110.00" cy="390.00" r="4.50" fill="#B279A2" stroke="#ffffff" stroke-width="1.5" />
<circle cx="213.33" cy="375.14" r="4.50" fill="#B279A2" stroke="#ffffff" stroke-width="1.5" />
<circle cx="316.67" cy="374.97" r="4.50" fill="#B279A2" stroke="#ffffff" stroke-width="1.5" />
<circle cx="420.00" cy="390.28" r="4.50" fill="#B279A2" stroke="#ffffff" stroke-width="1.5" />
<circle cx="523.33" cy="370.37" r="4.50" fill="#B279A2" stroke="#ffffff" stroke-width="1.5" />
<circle cx="626.67" cy="380.03" r="4.50" fill="#B279A2" stroke="#ffffff" stroke-width="1.5" />
<circle cx="730.00" cy="390.00" r="4.50" fill="#B279A2" stroke="#ffffff" stroke-width="1.5" />
<circle cx="833.33" cy="390.28" r="4.50" fill="#B279A2" stroke="#ffffff" stroke-width="1.5" />
<polyline points="110.00,166.41 213.33,163.19 316.67,164.44 420.00,164.18 523.33,163.73 626.67,164.55 730.00,164.76 833.33,160.67" fill="none" stroke="#FF9DA6" stroke-width="3" stroke-linecap="round" stroke-linejoin="round" />
<circle cx="110.00" cy="166.41" r="4.50" fill="#FF9DA6" stroke="#ffffff" stroke-width="1.5" />
<circle cx="213.33" cy="163.19" r="4.50" fill="#FF9DA6" stroke="#ffffff" stroke-width="1.5" />
<circle cx="316.67" cy="164.44" r="4.50" fill="#FF9DA6" stroke="#ffffff" stroke-width="1.5" />
<circle cx="420.00" cy="164.18" r="4.50" fill="#FF9DA6" stroke="#ffffff" stroke-width="1.5" />
<circle cx="523.33" cy="163.73" r="4.50" fill="#FF9DA6" stroke="#ffffff" stroke-width="1.5" />
<circle cx="626.67" cy="164.55" r="4.50" fill="#FF9DA6" stroke="#ffffff" stroke-width="1.5" />
<circle cx="730.00" cy="164.76" r="4.50" fill="#FF9DA6" stroke="#ffffff" stroke-width="1.5" />
<circle cx="833.33" cy="160.67" r="4.50" fill="#FF9DA6" stroke="#ffffff" stroke-width="1.5" />
<rect x="110.00" y="570.00" width="930.00" height="340.00" fill="#fcfcfd" stroke="#d1d5db" stroke-width="1" />
<text x="122.00" y="594.00" font-size="16" font-weight="700" fill="#111827">Per-board runtime for board-counted benchmarks</text>
<line x1="110.00" y1="910.00" x2="1040.00" y2="910.00" stroke="#e5e7eb" stroke-width="1" />
<text x="96.00" y="915.00" text-anchor="end" font-size="13" fill="#374151">10 s</text>
<line x1="110.00" y1="807.65" x2="1040.00" y2="807.65" stroke="#e5e7eb" stroke-width="1" />
<text x="96.00" y="812.65" text-anchor="end" font-size="13" fill="#374151">20 s</text>
<line x1="110.00" y1="672.35" x2="1040.00" y2="672.35" stroke="#e5e7eb" stroke-width="1" />
<text x="96.00" y="677.35" text-anchor="end" font-size="13" fill="#374151">50 s</text>
<line x1="110.00" y1="570.00" x2="1040.00" y2="570.00" stroke="#e5e7eb" stroke-width="1" />
<text x="96.00" y="575.00" text-anchor="end" font-size="13" fill="#374151">100 s</text>
<line x1="110.00" y1="570.00" x2="110.00" y2="910.00" stroke="#6b7280" stroke-width="1.5" />
<line x1="110.00" y1="910.00" x2="1040.00" y2="910.00" stroke="#6b7280" stroke-width="1.5" />
<text x="34.00" y="740.00" transform="rotate(-90 34 740.00)" font-size="14" fill="#374151">Per-board time (seconds, log scale)</text>
<line x1="110.00" y1="570.00" x2="110.00" y2="910.00" stroke="#f3f4f6" stroke-width="1" />
<text x="110.00" y="936.00" text-anchor="end" font-size="12" fill="#374151" transform="rotate(-35 110.00 936.00)">2bec9d9 10:10</text>
<line x1="213.33" y1="570.00" x2="213.33" y2="910.00" stroke="#f3f4f6" stroke-width="1" />
<text x="213.33" y="936.00" text-anchor="end" font-size="12" fill="#374151" transform="rotate(-35 213.33 936.00)">2bec9d9 11:21</text>
<line x1="316.67" y1="570.00" x2="316.67" y2="910.00" stroke="#f3f4f6" stroke-width="1" />
<text x="316.67" y="936.00" text-anchor="end" font-size="12" fill="#374151" transform="rotate(-35 316.67 936.00)">e537788 12:45</text>
<line x1="420.00" y1="570.00" x2="420.00" y2="910.00" stroke="#f3f4f6" stroke-width="1" />
<text x="420.00" y="936.00" text-anchor="end" font-size="12" fill="#374151" transform="rotate(-35 420.00 936.00)">e537788 12:50</text>
<line x1="523.33" y1="570.00" x2="523.33" y2="910.00" stroke="#f3f4f6" stroke-width="1" />
<text x="523.33" y="936.00" text-anchor="end" font-size="12" fill="#374151" transform="rotate(-35 523.33 936.00)">04290a6 17:12</text>
<line x1="626.67" y1="570.00" x2="626.67" y2="910.00" stroke="#f3f4f6" stroke-width="1" />
<text x="626.67" y="936.00" text-anchor="end" font-size="12" fill="#374151" transform="rotate(-35 626.67 936.00)">6a0afe7 06:47</text>
<line x1="730.00" y1="570.00" x2="730.00" y2="910.00" stroke="#f3f4f6" stroke-width="1" />
<text x="730.00" y="936.00" text-anchor="end" font-size="12" fill="#374151" transform="rotate(-35 730.00 936.00)">e83103f 09:54</text>
<line x1="833.33" y1="570.00" x2="833.33" y2="910.00" stroke="#f3f4f6" stroke-width="1" />
<text x="833.33" y="936.00" text-anchor="end" font-size="12" fill="#374151" transform="rotate(-35 833.33 936.00)">75252de 21:05</text>
<line x1="936.67" y1="570.00" x2="936.67" y2="910.00" stroke="#f3f4f6" stroke-width="1" />
<text x="936.67" y="936.00" text-anchor="end" font-size="12" fill="#374151" transform="rotate(-35 936.67 936.00)">e11ce28 17:10</text>
<line x1="1040.00" y1="570.00" x2="1040.00" y2="910.00" stroke="#f3f4f6" stroke-width="1" />
<text x="1040.00" y="936.00" text-anchor="end" font-size="12" fill="#374151" transform="rotate(-35 1040.00 936.00)">b12ad9e 19:19</text>
<polyline points="936.67,632.83 1040.00,637.94" fill="none" stroke="#54A24B" stroke-width="3" stroke-linecap="round" stroke-linejoin="round" />
<circle cx="936.67" cy="632.83" r="4.50" fill="#54A24B" stroke="#ffffff" stroke-width="1.5" />
<circle cx="1040.00" cy="637.94" r="4.50" fill="#54A24B" stroke="#ffffff" stroke-width="1.5" />
<text x="575.00" y="1064.00" text-anchor="middle" font-size="14" fill="#374151">Commit/time of recorded performance entry</text>
<text x="1068.00" y="140.00" font-size="16" font-weight="700" fill="#111827">Workloads</text>
<line x1="1068.00" y1="161.00" x2="1096.00" y2="161.00" stroke="#4C78A8" stroke-width="4" stroke-linecap="round" />
<circle cx="1082.00" cy="161.00" r="4.50" fill="#4C78A8" stroke="#ffffff" stroke-width="1.5" />
<text x="1108.00" y="166.00" font-size="13" fill="#111827">alpha_mu_prototype_bridge_dds</text>
<line x1="1068.00" y1="187.00" x2="1096.00" y2="187.00" stroke="#F58518" stroke-width="4" stroke-linecap="round" />
<circle cx="1082.00" cy="187.00" r="4.50" fill="#F58518" stroke="#ffffff" stroke-width="1.5" />
<text x="1108.00" y="192.00" font-size="13" fill="#111827">alpha_mu_prototype_default</text>
<line x1="1068.00" y1="213.00" x2="1096.00" y2="213.00" stroke="#54A24B" stroke-width="4" stroke-linecap="round" />
<circle cx="1082.00" cy="213.00" r="4.50" fill="#54A24B" stroke="#ffffff" stroke-width="1.5" />
<text x="1108.00" y="218.00" font-size="13" fill="#111827">alpha_mu_prototype_list10_depth2</text>
<line x1="1068.00" y1="239.00" x2="1096.00" y2="239.00" stroke="#E45756" stroke-width="4" stroke-linecap="round" />
<circle cx="1082.00" cy="239.00" r="4.50" fill="#E45756" stroke="#ffffff" stroke-width="1.5" />
<text x="1108.00" y="244.00" font-size="13" fill="#111827">dtest_solve_list10</text>
<line x1="1068.00" y1="265.00" x2="1096.00" y2="265.00" stroke="#72B7B2" stroke-width="4" stroke-linecap="round" />
<circle cx="1082.00" cy="265.00" r="4.50" fill="#72B7B2" stroke="#ffffff" stroke-width="1.5" />
<text x="1108.00" y="270.00" font-size="13" fill="#111827">dtest_solve_list100</text>
<line x1="1068.00" y1="291.00" x2="1096.00" y2="291.00" stroke="#B279A2" stroke-width="4" stroke-linecap="round" />
<circle cx="1082.00" cy="291.00" r="4.50" fill="#B279A2" stroke="#ffffff" stroke-width="1.5" />
<text x="1108.00" y="296.00" font-size="13" fill="#111827">play_analysis_benchmark</text>
<line x1="1068.00" y1="317.00" x2="1096.00" y2="317.00" stroke="#FF9DA6" stroke-width="4" stroke-linecap="round" />
<circle cx="1082.00" cy="317.00" r="4.50" fill="#FF9DA6" stroke="#ffffff" stroke-width="1.5" />
<text x="1108.00" y="322.00" font-size="13" fill="#111827">regression_api_smoke</text>
<text x="1068.00" y="348.00" font-size="16" font-weight="700" fill="#111827">Graph markers</text>
<circle cx="1082.00" cy="369.00" r="6.00" fill="#ffffff" stroke="#6b7280" stroke-width="2.0" />
<line x1="1078.00" y1="365.00" x2="1086.00" y2="373.00" stroke="#6b7280" stroke-width="1.8" stroke-linecap="round" />
<line x1="1078.00" y1="373.00" x2="1086.00" y2="365.00" stroke="#6b7280" stroke-width="1.8" stroke-linecap="round" />
<text x="1108.00" y="374.00" font-size="13" fill="#111827">Flagged outlier / non-comparable measurement</text>
<text x="1068.00" y="426.00" font-size="16" font-weight="700" fill="#111827">Latest entry</text>
<text x="1068.00" y="450.00" font-size="13" fill="#374151">2026-04-16 19:19:08 / b12ad9e</text>
<text x="1068.00" y="472.00" font-size="13" fill="#374151">Cumulative series: alpha_mu_prototype_list10_depth2</text>
<text x="1068.00" y="494.00" font-size="13" fill="#374151">Per-board series: alpha_mu_prototype_list10_depth2</text>
</svg>
